<svg width="30" height="30" xmlns="http://www.w3.org/2000/svg" xmlns:xlink="http://www.w3.org/1999/xlink">
    <defs>
        <path d="M30.178 18.907c1.668 4.251.786 9.258-2.546 12.657A11.35 11.35 0 0 1 19.5 35a11.35 11.35 0 0 1-8.132-3.436c-4.214-4.3-4.51-11.17-.683-15.83L19.5 5l3.24 4.175a6.053 6.053 0 0 0-2.93 1.73C18.643 12.133 18 13.764 18 15.502c0 1.733.641 3.367 1.808 4.593C20.971 21.323 22.521 22 24.171 22a5.948 5.948 0 0 0 4.336-1.878l1.671-1.215zM13.698 30L15 28.744a6.988 6.988 0 0 1-2.153-4.72 6.945 6.945 0 0 1 1.715-4.883L13.152 18a8.678 8.678 0 0 0-2.143 6.103c.102 2.226 1.057 4.32 2.69 5.897zm19.86-19c1.185 0 2.3.468 3.14 1.317A4.497 4.497 0 0 1 38 15.499a4.492 4.492 0 0 1-1.303 3.182A4.376 4.376 0 0 1 33.557 20a4.385 4.385 0 0 1-3.142-1.319L29 17.306 27.565 18.7a4.365 4.365 0 0 1-3.122 1.3 4.38 4.38 0 0 1-3.141-1.319A4.493 4.493 0 0 1 20 15.501c0-1.203.463-2.332 1.303-3.182A4.383 4.383 0 0 1 24.443 11a4.38 4.38 0 0 1 3.142 1.319l1.414 1.375 1.436-1.396A4.375 4.375 0 0 1 33.557 11zm-7.065 6.43L28 16.012l-1.486-1.403a2.074 2.074 0 0 0-2.912-.02 1.978 1.978 0 0 0-.002 2.841c.773.76 2.12.76 2.893 0zm8.906-.007a1.992 1.992 0 0 0 .001-2.853c-.772-.76-2.12-.76-2.894.002L31 15.996l1.486 1.407c.814.801 2.14.784 2.913.02z" id="a"/>
    </defs>
    <use fill-rule="nonzero" xlink:href="#a" transform="translate(-8 -5)"/>
</svg>
