<svg width="26" height="22" xmlns="http://www.w3.org/2000/svg" xmlns:xlink="http://www.w3.org/1999/xlink">
    <defs>
        <path d="M8 9h3a1 1 0 0 1 1 1v8a1 1 0 0 1-1 1H8a1 1 0 0 1-1-1v-8a1 1 0 0 1 1-1zm7 0h3a1 1 0 0 1 1 1v8a1 1 0 0 1-1 1h-3a1 1 0 0 1-1-1v-8a1 1 0 0 1 1-1zm7 0h3a1 1 0 0 1 1 1v8a1 1 0 0 1-1 1h-3a1 1 0 0 1-1-1v-8a1 1 0 0 1 1-1zm7 0h3a1 1 0 0 1 1 1v8a1 1 0 0 1-1 1h-3a1 1 0 0 1-1-1v-8a1 1 0 0 1 1-1zM8 21h3a1 1 0 0 1 1 1v8a1 1 0 0 1-1 1H8a1 1 0 0 1-1-1v-8a1 1 0 0 1 1-1zm7 0h3a1 1 0 0 1 1 1v8a1 1 0 0 1-1 1h-3a1 1 0 0 1-1-1v-8a1 1 0 0 1 1-1zm7 0h3a1 1 0 0 1 1 1v8a1 1 0 0 1-1 1h-3a1 1 0 0 1-1-1v-8a1 1 0 0 1 1-1zm7 0h3a1 1 0 0 1 1 1v8a1 1 0 0 1-1 1h-3a1 1 0 0 1-1-1v-8a1 1 0 0 1 1-1z" id="a"/>
    </defs>
    <use fill-rule="nonzero" xlink:href="#a" transform="translate(-7 -9)"/>
</svg>
