<svg width="25" height="25" xmlns="http://www.w3.org/2000/svg" xmlns:xlink="http://www.w3.org/1999/xlink">
    <defs>
        <path d="M20.5 32C26.851 32 32 26.851 32 20.5S26.851 9 20.5 9 9 14.149 9 20.5 14.149 32 20.5 32zm0 1C13.596 33 8 27.404 8 20.5S13.596 8 20.5 8 33 13.596 33 20.5 27.404 33 20.5 33zm-4.999-13a.506.506 0 0 0-.501.5c0 .276.23.5.501.5H25.5a.506.506 0 0 0 .501-.5c0-.276-.23-.5-.501-.5H15.5z" id="a"/>
    </defs>
    <use fill-rule="nonzero" xlink:href="#a" transform="translate(-8 -8)"/>
</svg>
