<svg width="24" height="30" xmlns="http://www.w3.org/2000/svg" xmlns:xlink="http://www.w3.org/1999/xlink">
    <defs>
        <path d="M31.967 13.009L24.94 24.11l.892-7.87h-5.064L27.62 5l-.762 8.009h5.109zm-1.46 5.59a11.744 11.744 0 0 1-2.465 12.965A11.678 11.678 0 0 1 19.754 35c-3 0-5.999-1.145-8.288-3.436a11.74 11.74 0 0 1-.696-15.83L19.754 5l3.361 4.016-3.846 6.31-1.63 2.673h6.227l-.67 5.914-.863 7.601 4.09-6.462 4.085-6.454z" id="a"/>
    </defs>
    <use fill-rule="nonzero" xlink:href="#a" transform="translate(-8 -5)"/>
</svg>
