<svg width="14" height="17" xmlns="http://www.w3.org/2000/svg" xmlns:xlink="http://www.w3.org/1999/xlink">
    <defs>
        <path d="M13 15.43v-.477c0-.701.573-.953 1.286-.953h1l.503-.299c.215-.432.66-1.701 1.147-1.701h6.123c.487 0 .932 1.269 1.152 1.701l.503.299h1c.713 0 1.286.252 1.286.953v.477a.64.64 0 0 1-.643.633H13.643A.64.64 0 0 1 13 15.43zm13.243 3.99l-1.093 8.207C25.064 28.961 23.94 29 22.584 29h-5.168c-1.355 0-2.48-.039-2.566-1.373l-1.093-8.207c-.021-.364.273-1.42.643-1.42h11.205c.365 0 .66 1.056.638 1.42z" id="a"/>
    </defs>
    <use fill-rule="nonzero" xlink:href="#a" transform="translate(-13 -12)"/>
</svg>
